<?xml version="1.0" standalone="no"?>
<!DOCTYPE svg PUBLIC "-//W3C//DTD SVG 20010904//EN"
 "http://www.w3.org/TR/2001/REC-SVG-20010904/DTD/svg10.dtd">
<svg version="1.0" xmlns="http://www.w3.org/2000/svg"
 width="290.000000pt" height="174.000000pt" viewBox="0 0 290.000000 174.000000"
 preserveAspectRatio="xMidYMid meet">

<g transform="translate(0.000000,174.000000) scale(0.100000,-0.100000)"
fill="#000000" stroke="none">
<path d="M882 1676 c-51 -29 -95 -56 -99 -59 -3 -4 25 -7 63 -7 l69 0 33 60
c18 33 31 60 30 60 -2 0 -45 -25 -96 -54z"/>
<path d="M1918 1698 c10 -18 27 -47 37 -64 l17 -30 -97 -170 c-193 -334 -248
-430 -267 -461 l-20 -33 79 0 79 0 187 325 c103 179 187 329 187 334 0 7 -204
131 -217 131 -2 0 4 -15 15 -32z"/>
<path d="M1402 1540 c18 -33 35 -60 38 -60 3 0 20 27 38 60 l33 60 -71 0 -71
0 33 -60z"/>
<path d="M1317 1251 c-65 -113 -131 -230 -148 -258 l-31 -53 74 0 73 0 78 134
78 135 -3 124 -3 124 -118 -206z"/>
<path d="M2128 585 c-18 -41 3 -75 46 -75 36 0 56 20 56 54 0 47 -82 64 -102
21z"/>
<path d="M2338 508 c-3 -39 -6 -43 -30 -46 -25 -3 -28 -8 -28 -38 0 -31 2 -34
30 -34 l30 0 0 -95 c0 -81 3 -98 20 -115 24 -24 55 -32 106 -28 37 3 39 5 42
41 3 35 2 37 -25 37 -44 0 -53 17 -53 92 l0 68 40 0 c39 0 40 1 40 35 0 34 -1
35 -40 35 l-40 0 0 45 0 45 -44 0 -45 0 -3 -42z"/>
<path d="M632 453 c-79 -39 -110 -125 -74 -205 36 -83 127 -118 216 -84 66 25
73 39 34 69 -32 25 -32 25 -56 6 -14 -10 -35 -19 -48 -19 -24 0 -64 31 -64 50
0 5 47 11 108 12 l107 3 -3 45 c-5 58 -25 96 -65 120 -39 24 -109 26 -155 3z
m110 -70 c34 -31 23 -43 -42 -43 -64 0 -73 9 -43 42 20 22 61 23 85 1z"/>
<path d="M1023 450 c-27 -16 -33 -17 -33 -5 0 11 -12 15 -45 15 l-45 0 0 -150
0 -150 50 0 50 0 0 99 c0 104 10 131 49 131 34 0 41 -21 41 -127 l0 -103 50 0
50 0 0 99 c0 92 2 101 22 115 28 20 43 20 62 0 12 -12 16 -38 16 -115 l0 -99
45 0 45 0 0 109 c0 59 -5 122 -11 140 -22 62 -113 81 -168 35 -17 -14 -31 -21
-31 -15 0 15 -54 41 -87 41 -15 0 -43 -9 -60 -20z"/>
<path d="M1493 450 c-24 -10 -43 -22 -43 -26 0 -4 9 -18 21 -30 l20 -22 39 22
c37 19 42 20 67 6 52 -29 41 -47 -30 -52 -113 -9 -162 -61 -135 -140 19 -55
131 -76 179 -32 17 16 19 16 19 1 0 -13 10 -17 46 -17 l46 0 -4 113 c-3 63
-10 124 -18 139 -27 56 -127 75 -207 38z m137 -177 c-1 -54 -76 -79 -110 -38
-19 23 22 55 70 55 31 0 40 -4 40 -17z"/>
<path d="M1893 450 c-27 -16 -33 -17 -33 -5 0 11 -12 15 -45 15 l-45 0 0 -150
0 -150 50 0 50 0 0 100 c0 96 1 100 25 116 21 14 31 15 50 6 24 -11 25 -15 25
-117 l0 -105 50 0 50 0 0 105 c0 115 -13 162 -51 189 -32 22 -87 20 -126 -4z"/>
<path d="M58 310 l55 -150 48 0 48 0 16 57 c9 32 22 76 29 98 l13 40 31 -95
30 -95 49 -3 48 -3 49 138 c27 76 51 144 54 151 3 8 -10 12 -45 12 l-49 0 -17
-65 c-35 -131 -36 -132 -66 -30 l-27 90 -54 0 -54 0 -22 -84 c-13 -46 -25 -86
-28 -88 -3 -3 -17 36 -33 86 l-28 91 -51 0 -51 0 55 -150z"/>
<path d="M2130 310 l0 -150 45 0 45 0 0 150 0 150 -45 0 -45 0 0 -150z"/>
<path d="M2565 441 c3 -11 32 -80 64 -154 55 -127 58 -136 45 -166 -13 -31
-25 -36 -75 -32 -23 2 -27 -3 -32 -31 -2 -18 -3 -36 0 -40 2 -5 30 -8 62 -8
82 0 101 18 149 143 22 56 58 148 80 205 l40 102 -48 0 -48 0 -32 -96 c-18
-53 -36 -92 -40 -87 -4 4 -22 47 -40 96 l-33 87 -49 0 c-44 0 -49 -2 -43 -19z"/>
</g>
</svg>
